<?xml version="1.0" encoding="UTF-8"?>
<svg version="1.1" xmlns="http://www.w3.org/2000/svg" width="291" height="289">
<path d="M0 0 C1.31948135 -0.00137466 2.63896271 -0.00274933 3.99842834 -0.00416565 C5.45372032 -0.00062692 6.90901207 0.00300788 8.36430359 0.00672913 C9.90196735 0.0070113 11.43963124 0.00685267 12.97729492 0.00628662 C17.14629919 0.00599984 21.31527466 0.01187742 25.48427224 0.01886058 C29.84314086 0.02511384 34.20201015 0.02569948 38.56088257 0.02688599 C46.8126428 0.02999348 55.06438977 0.03819903 63.31614417 0.04823548 C72.71148462 0.05941467 82.10682571 0.06491162 91.50217116 0.06993091 C110.82690967 0.08038212 130.15163583 0.09797031 149.47636414 0.12025452 C149.56992244 20.54814704 149.64039962 40.9759959 149.68361282 61.40405846 C149.7042133 70.88977101 149.73228571 80.37535022 149.77812195 89.86097717 C149.81806683 98.13137327 149.84381522 106.40167276 149.85271811 114.67216265 C149.85791994 119.04889618 149.87009336 123.42535341 149.89928436 127.80199814 C149.92657459 131.92735084 149.93478187 136.05231524 149.92879486 140.17774963 C149.92988905 141.6861495 149.93776173 143.19456328 149.95318604 144.70288467 C150.04734124 154.39107272 149.33413012 162.54418229 143.68730164 170.70619202 C137.11590896 177.10980445 130.71829422 180.24109841 121.47636414 180.62025452 C113.72132126 180.34079351 105.91133188 177.85716491 100.47636414 172.12025452 C93.34799045 161.51505151 93.34799045 161.51505151 93.35610962 154.84921265 C93.35404762 153.54303986 93.35404762 153.54303986 93.35194397 152.21047974 C93.35733688 150.78196938 93.35733688 150.78196938 93.36283875 149.32460022 C93.36269272 148.31954437 93.36254669 147.31448853 93.36239624 146.27897644 C93.36309385 142.95130772 93.3708792 139.62369473 93.37870789 136.29603577 C93.3805726 133.99103832 93.38199625 131.68604047 93.38299561 129.38104248 C93.38681654 123.30980844 93.39664325 117.23859826 93.40769958 111.16737366 C93.41792279 104.97393619 93.42249518 98.78049487 93.42753601 92.58705139 C93.43826586 80.43144194 93.45533724 68.27585021 93.47636414 56.12025452 C92.20595779 56.12913696 90.93555145 56.13801941 89.62664795 56.14717102 C77.63584311 56.22836871 65.64509429 56.28827376 53.65407658 56.3275032 C47.48982315 56.34834969 41.32579225 56.3766142 35.16166687 56.42201233 C29.20942443 56.46557406 23.25739561 56.48941372 17.30500603 56.49976349 C15.03767473 56.50713626 12.7703547 56.52153352 10.5031147 56.54317474 C7.31954597 56.57234528 4.13685232 56.57620472 0.95317078 56.57435608 C0.02240219 56.58873718 -0.90836639 56.60311829 -1.86734009 56.61793518 C-10.12421991 56.56628534 -17.58313032 54.06076006 -23.52363586 48.12025452 C-29.01292424 40.80653793 -31.49265358 33.27208853 -30.52363586 24.12025452 C-28.9703374 16.4581856 -25.43008346 10.00000755 -19.08613586 5.32337952 C-12.58614818 1.26088722 -7.67552109 -0.006175 0 0 Z " fill="#13C68E" transform="translate(41.52363586425781,98.87974548339844)"/>
<path d="M0 0 C1.5578103 0.00084721 3.11562179 0.00036929 4.6734314 -0.00132751 C8.88367329 -0.00218521 13.09365669 0.0154038 17.30383873 0.03639436 C21.71072439 0.05519893 26.11761654 0.05691457 30.52453613 0.06047058 C38.86124531 0.06977996 47.19783591 0.09437871 55.53449297 0.12451905 C65.02903974 0.15809757 74.5235923 0.17455774 84.01818371 0.18960536 C103.54148648 0.22092929 123.064679 0.27366819 142.58789062 0.34057617 C142.68141935 20.91612054 142.75191167 41.49162974 142.79513931 62.06734371 C142.81574604 71.62146558 142.84383047 81.17545521 142.88964844 90.72949219 C142.9295741 99.05884233 142.95533717 107.38809667 142.9642446 115.71753985 C142.96944966 120.12609855 142.98164389 124.53438323 143.01081085 128.94285393 C143.03807062 133.09692997 143.04631442 137.25062053 143.04032135 141.40477753 C143.04141689 142.92488516 143.04930786 144.44500642 143.06471252 145.96503639 C143.15503259 155.34143381 142.5704918 162.83131121 136.94726562 170.61010742 C130.5462326 176.74702015 124.26566007 179.89526092 115.40039062 180.59057617 C106.89267036 180.03269288 99.7065723 177.39112108 93.58789062 171.34057617 C87.43360247 163.63597115 86.28509402 155.95123984 86.36083984 146.36621094 C86.36054779 145.3898317 86.36025574 144.41345245 86.35995483 143.40748596 C86.36134171 140.19889255 86.37687271 136.99053498 86.39257812 133.78198242 C86.39631054 131.54996365 86.39915643 129.31794324 86.40115356 127.08592224 C86.40877203 121.2251428 86.42840523 115.36446325 86.45056152 109.50372314 C86.47105843 103.51771394 86.4801635 97.53168852 86.49023438 91.5456543 C86.51165277 79.81058449 86.54576717 68.07558865 86.58789062 56.34057617 C85.34476105 56.34945862 84.10163147 56.35834106 82.8208313 56.36749268 C71.0805137 56.4487332 59.34025347 56.50861587 47.59971809 56.54782486 C41.56440602 56.56866056 35.52932167 56.59690514 29.49414062 56.64233398 C23.66508636 56.68593448 17.83625055 56.70974347 12.00704575 56.72008514 C9.78798867 56.727451 7.56894297 56.74183464 5.3499794 56.7634964 C2.23127054 56.7927187 -0.88654641 56.79652426 -4.00537109 56.79467773 C-5.36807884 56.81624939 -5.36807884 56.81624939 -6.75831604 56.83825684 C-14.68976585 56.78775484 -21.11759029 54.51620198 -27.72460938 50.15307617 C-34.42506969 43.14096654 -36.75810296 35.81974395 -36.79492188 26.24682617 C-36.62463513 18.85354332 -34.45358754 13.75818596 -29.58007812 8.28198242 C-20.77479953 -0.07174342 -11.5028637 -0.08777362 0 0 Z " fill="#13C68E" transform="translate(137.412109375,9.659423828125)"/>
</svg>
